<svg width="24" height="24" viewBox="0 0 24 24" fill="none" xmlns="http://www.w3.org/2000/svg">
    <g clip-path="url(#clip0_39_114)">
        <path d="M9 7C3 7 1.00001 15 1 18C0.99998 19.5 1 22.2 5 23H19C21 23 23 20.4 23 18C23 14.5 21 7 15 7M9 7H15M9 7L5.5 5.5M9 7L7.5 3.5C7 2.5 7 1 10 1C13 1 14 1 14 1C17 1 17 2.5 16.5 3.5L15 7M15 7L18.5 5.5" stroke="#007895" stroke-width="2" stroke-linecap="round"/>
        <path d="M11.408 20.44V9.16H12.176V20.44H11.408ZM11.708 19.096C11.068 19.096 10.456 19 9.872 18.808C9.288 18.608 8.828 18.352 8.492 18.04L8.936 17.104C9.256 17.384 9.664 17.616 10.16 17.8C10.656 17.984 11.172 18.076 11.708 18.076C12.196 18.076 12.592 18.02 12.896 17.908C13.2 17.796 13.424 17.644 13.568 17.452C13.712 17.252 13.784 17.028 13.784 16.78C13.784 16.492 13.688 16.26 13.496 16.084C13.312 15.908 13.068 15.768 12.764 15.664C12.468 15.552 12.14 15.456 11.78 15.376C11.42 15.296 11.056 15.204 10.688 15.1C10.328 14.988 9.996 14.848 9.692 14.68C9.396 14.512 9.156 14.288 8.972 14.008C8.788 13.72 8.696 13.352 8.696 12.904C8.696 12.472 8.808 12.076 9.032 11.716C9.264 11.348 9.616 11.056 10.088 10.84C10.568 10.616 11.176 10.504 11.912 10.504C12.4 10.504 12.884 10.568 13.364 10.696C13.844 10.824 14.26 11.008 14.612 11.248L14.216 12.208C13.856 11.968 13.476 11.796 13.076 11.692C12.676 11.58 12.288 11.524 11.912 11.524C11.44 11.524 11.052 11.584 10.748 11.704C10.444 11.824 10.22 11.984 10.076 12.184C9.94 12.384 9.872 12.608 9.872 12.856C9.872 13.152 9.964 13.388 10.148 13.564C10.34 13.74 10.584 13.88 10.88 13.984C11.184 14.088 11.516 14.184 11.876 14.272C12.236 14.352 12.596 14.444 12.956 14.548C13.324 14.652 13.656 14.788 13.952 14.956C14.256 15.124 14.5 15.348 14.684 15.628C14.868 15.908 14.96 16.268 14.96 16.708C14.96 17.132 14.844 17.528 14.612 17.896C14.38 18.256 14.02 18.548 13.532 18.772C13.052 18.988 12.444 19.096 11.708 19.096Z" fill="#007895"/>
    </g>
    <defs>
        <clipPath id="clip0_39_114">
            <rect width="24" height="24" fill="white"/>
        </clipPath>
    </defs>
</svg>
